HIERARCHY
ROOT root
{
	OFFSET	0	13.1	24.9
	CHANNELS 6  Xposition Yposition Zposition Xrotation Yrotation Zrotation
	JOINT spine_1
	{
		OFFSET	0	9.99999	0
		CHANNELS 3  Xrotation Yrotation Zrotation
		JOINT spine_2
		{
			OFFSET	0	112	-10
			CHANNELS 3  Xrotation Yrotation Zrotation
			JOINT spine_3
			{
				OFFSET	0	206.5	19.3
				CHANNELS 3  Xrotation Yrotation Zrotation
				JOINT spine_4
				{
					OFFSET	0	110.4	14.6
					CHANNELS 3  Xrotation Yrotation Zrotation
					JOINT neck_1
					{
						OFFSET	0	71.8	-50.3
						CHANNELS 3  Xrotation Yrotation Zrotation
						JOINT neck_2
						{
							OFFSET	0	86.2	-25.8
							CHANNELS 3  Xrotation Yrotation Zrotation
							JOINT head_ee
							{
								OFFSET	0	179.8	-8.7
								CHANNELS 3  Xrotation Yrotation Zrotation
								End Site
								{
									OFFSET	1	0	0
								}
							}
						}
					}
					JOINT left_clavicle
					{
						OFFSET	-43.2	22.4	-70.8
						CHANNELS 3  Xrotation Yrotation Zrotation
						JOINT left_shoulder
						{
							OFFSET	-93.9	-5.79999	48.7
							CHANNELS 3  Xrotation Yrotation Zrotation
							JOINT left_elbow
							{
								OFFSET	-291.4	-30.8	15.2
								CHANNELS 3  Xrotation Yrotation Zrotation
								JOINT left_lowarm_twist
								{
									OFFSET	-110.7	-3.89999	13.6
									CHANNELS 3  Xrotation Yrotation Zrotation
									JOINT left_hand
									{
										OFFSET	-110.7	-3.89999	13.6
										CHANNELS 3  Xrotation Yrotation Zrotation
										JOINT left_ee
										{
											OFFSET	-80.8	-5.10001	12.1
											CHANNELS 3  Xrotation Yrotation Zrotation
											End Site
											{
												OFFSET	1	0	0
											}
										}
									}
								}
							}
						}
					}
					JOINT right_clavicle
					{
						OFFSET	43.2	22.4	-70.8
						CHANNELS 3  Xrotation Yrotation Zrotation
						JOINT right_shoulder
						{
							OFFSET	93.9	-5.79999	48.7
							CHANNELS 3  Xrotation Yrotation Zrotation
							JOINT right_elbow
							{
								OFFSET	291.4	-30.8	15.2
								CHANNELS 3  Xrotation Yrotation Zrotation
								JOINT right_lowarm_twist
								{
									OFFSET	110.7	-3.89999	13.6
									CHANNELS 3  Xrotation Yrotation Zrotation
									JOINT right_hand
									{
										OFFSET	110.7	-3.89999	13.6
										CHANNELS 3  Xrotation Yrotation Zrotation
										JOINT right_ee
										{
											OFFSET	80.8	-5.10001	12.1
											CHANNELS 3  Xrotation Yrotation Zrotation
											End Site
											{
												OFFSET	1	0	0
											}
										}
									}
								}
							}
						}
					}
				}
			}
		}
	}
	JOINT left_hip
	{
		OFFSET	-82.8	-127.5	0.300001
		CHANNELS 3  Xrotation Yrotation Zrotation
		JOINT left_knee
		{
			OFFSET	-28.2	-396.7	2.2
			CHANNELS 3  Xrotation Yrotation Zrotation
			JOINT left_ankle
			{
				OFFSET	-11.7	-411.3	35.4
				CHANNELS 3  Xrotation Yrotation Zrotation
				JOINT left_toes
				{
					OFFSET	0	-60	-88.6
					CHANNELS 3  Xrotation Yrotation Zrotation
					JOINT left_foot_ee
					{
						OFFSET	-22.5	-16.5	-42.2
						CHANNELS 3  Xrotation Yrotation Zrotation
						End Site
						{
							OFFSET	1	0	0
						}
					}
				}
			}
		}
	}
	JOINT right_hip
	{
		OFFSET	82.8	-127.5	0.300001
		CHANNELS 3  Xrotation Yrotation Zrotation
		JOINT right_knee
		{
			OFFSET	28.2	-396.7	2.2
			CHANNELS 3  Xrotation Yrotation Zrotation
			JOINT right_ankle
			{
				OFFSET	11.7	-411.3	35.4
				CHANNELS 3  Xrotation Yrotation Zrotation
				JOINT right_toes
				{
					OFFSET	0	-60	-88.6
					CHANNELS 3  Xrotation Yrotation Zrotation
					JOINT right_foot_ee
					{
						OFFSET	22.5	-16.5	-42.2
						CHANNELS 3  Xrotation Yrotation Zrotation
						End Site
						{
							OFFSET	1	0	0
						}
					}
				}
			}
		}
	}
}
MOTION
Frames: 15
Frame Time: 0.02
2362.79 715.271 -1242.67 -13.2836 50.1328 6.23882 3.5962 0.120538 3.98273 3.60502 -0.132933 3.98233 3.59151 -0.724149 3.9183 3.5701 -0.0967521 3.98337 -15.6251 14.1858 -3.26973 -16.4783 29.0495 2.08594 -0.0 0.0 -0.0 -7.31611 15.4895 -10.0077 -1.54287 -21.9975 59.8998 3.13483 -57.208 1.70975 22.0405 0.243097 -2.78767 1.15641 -11.2195 3.03286 -0.0 0.0 -0.0 10.8754 18.4596 -21.4752 -35.8204 36.5435 -66.1802 0.539061 14.9513 -0.0707362 32.6641 0.0236422 4.11657 2.07975 -17.4305 -20.1909 0.0 0.0 0.0 -16.542 70.26 18.4422 -12.6859 0.311074 1.91802 20.5958 -26.299 -3.35516 33.2669 -0.0 -0.0 -0.0 0.0 -0.0 29.0278 29.8718 -5.37486 -29.0313 -0.0799501 -4.4071 40.053 0.0542537 4.88089 17.0733 -0.0 -0.0 0.0 0.0 0.0 
2356.76 710.665 -1241.44 -11.7415 50.5453 4.34419 3.30267 0.161645 4.02332 3.31167 -0.0944862 4.02545 3.30137 -0.712591 3.96311 3.27946 -0.0782782 4.0258 -17.4344 14.3709 -1.50545 -18.4548 28.4285 4.3117 -0.0 0.0 -0.0 -7.03609 14.7719 -9.75875 -0.893346 -22.1466 59.2791 3.20937 -57.8174 1.77263 20.2177 0.263899 -2.55577 1.30939 -13.7737 2.95106 -0.0 0.0 -0.0 10.8141 18.1692 -21.3544 -37.4039 36.6173 -65.6907 0.54999 15.2404 -0.0735825 32.5738 0.0203418 4.10551 1.96459 -18.512 -19.7649 0.0 0.0 0.0 -26.009 71.7915 25.6213 -12.6238 0.310591 1.90849 21.504 -27.2045 -3.52145 31.8311 -0.0 -0.0 -0.0 0.0 -0.0 38.2469 33.0605 -11.1835 -46.3949 0.922888 -6.86922 40.2698 -5.63129 4.88143 20.9441 -0.0 -0.0 0.0 0.0 0.0 
2348.39 707.112 -1239.67 -11.6282 52.1706 3.06215 3.04676 0.0681576 4.23809 3.05673 -0.201415 4.23386 3.03838 -0.869785 4.14859 3.01443 -0.204292 4.23372 -16.6027 14.5406 -1.09867 -17.5463 28.5124 4.52321 -0.0 0.0 -0.0 -6.74028 13.1911 -9.72373 -0.0468823 -21.1786 58.9714 3.36563 -59.031 1.90576 19.546 0.269703 -2.47017 1.35991 -14.703 2.88164 -0.0 0.0 -0.0 10.7282 17.4603 -21.2015 -39.7102 36.3934 -65.3362 0.61475 16.9372 -0.0915312 32.9365 0.0337028 4.1499 1.85417 -19.6505 -19.3926 0.0 0.0 0.0 -30.9988 70.9972 30.0187 -10.7688 0.291441 1.62453 17.232 -29.3263 -2.96771 30.5182 -0.0 -0.0 -0.0 0.0 -0.0 47.1799 39.1609 -16.9727 -58.7346 2.0649 -8.38455 34.2387 -15.5621 4.38883 23.5029 -0.0 -0.0 0.0 0.0 0.0 
2346.24 705.575 -1235.45 -12.0334 52.1339 2.96781 2.87693 0.346273 4.23678 2.88691 0.0762227 4.25019 2.88969 -0.608466 4.20718 2.865 0.0629936 4.25041 -17.0349 13.94 0.0453089 -17.8922 26.7413 5.4316 -0.0 0.0 -0.0 -6.52788 11.128 -9.93954 0.3561 -19.7094 59.1395 3.67805 -61.2239 2.17671 14.6751 0.281723 -1.84834 1.62802 -16.4663 3.89509 -0.0 0.0 -0.0 10.7596 16.9207 -21.3012 -41.5791 36.9498 -64.3225 0.663002 18.1819 -0.10609 34.0162 0.0751406 4.28154 1.64942 -18.8988 -17.8598 0.0 0.0 0.0 -40.0047 70.926 39.3546 -6.13093 0.20344 0.918477 14.6632 -30.4541 -2.59808 28.0911 -0.0 -0.0 -0.0 0.0 -0.0 52.7946 38.715 -19.6865 -64.1169 2.66055 -8.96284 21.3688 -24.9158 3.04609 26.524 -0.0 -0.0 0.0 0.0 0.0 
2339.81 705.466 -1237.41 -11.7254 51.5881 2.26893 2.86065 0.649558 4.35639 2.87113 0.371307 4.38881 2.89678 -0.338204 4.39148 2.87005 0.358906 4.38984 -15.9779 13.4636 1.59715 -16.6197 24.8941 6.38788 -0.0 0.0 -0.0 -6.3884 9.99472 -10.0022 1.05488 -19.4339 58.5105 3.77115 -61.8233 2.25855 14.2931 0.280429 -1.79956 1.74879 -17.3164 4.31932 -0.0 0.0 -0.0 10.6954 16.2563 -21.1901 -41.776 36.8515 -65.513 0.65063 17.8644 -0.102261 33.1981 0.0435142 4.18186 1.53188 -22.9383 -18.3323 0.0 0.0 0.0 -43.4025 70.9645 42.0851 -4.94216 0.171701 0.738806 13.4055 -30.4425 -2.38981 25.8265 -0.0 -0.0 -0.0 0.0 -0.0 54.8257 40.5956 -21.7811 -63.8954 2.63497 -8.94014 14.6302 -27.8983 2.17961 29.951 -0.0 -0.0 0.0 0.0 0.0 
2338.03 703.282 -1236.33 -12.9412 52.2737 3.45698 2.81514 0.654272 4.46717 2.82616 0.368983 4.49966 2.85233 -0.361847 4.50024 2.82425 0.352684 4.50097 -15.678 13.9614 1.2842 -16.3638 26.0051 6.22296 -0.0 0.0 -0.0 -6.07894 9.30597 -9.62684 2.18534 -18.4651 58.0737 4.25108 -64.5788 2.68706 10.8595 0.254218 -1.36184 1.84376 -19.0448 4.16311 -0.0 0.0 -0.0 10.493 13.6068 -20.8426 -42.795 36.7923 -64.8267 0.621301 17.1071 -0.093449 35.1096 0.119629 4.41404 1.84618 -21.1014 -19.7637 0.0 0.0 0.0 -44.1663 69.8561 43.4405 -0.0697867 0.0028672 0.0103256 9.97466 -30.3398 -1.80423 23.0827 -0.0 -0.0 -0.0 0.0 -0.0 59.5521 40.6698 -24.1736 -57.9686 1.98467 -8.29784 -2.69336 -28.2797 -0.421363 34.6901 -0.0 -0.0 0.0 0.0 0.0 
2338.72 706.58 -1235.04 -14.0625 51.866 4.85878 2.88456 0.632578 4.3783 2.89515 0.35297 4.4096 2.91941 -0.357957 4.4092 2.89245 0.342189 4.41045 -16.437 13.5876 0.0995592 -17.1932 26.0081 5.1754 -0.0 0.0 -0.0 -5.74099 8.41015 -9.24179 4.00591 -17.7524 57.3588 4.09299 -63.7285 2.54478 8.95983 0.228462 -1.12057 1.62603 -18.2795 3.06338 -0.0 0.0 -0.0 10.6844 14.3672 -21.2442 -42.671 37.612 -65.5778 0.586573 16.2025 -0.0834955 34.1844 0.0818192 4.30197 1.80981 -19.959 -19.2008 0.0 0.0 0.0 -43.2638 70.8854 43.7172 2.59844 -0.115692 -0.381896 4.73094 -30.2463 -0.872862 19.6252 -0.0 -0.0 -0.0 0.0 -0.0 60.5771 41.7192 -25.2318 -51.5743 1.36203 -7.53457 -11.9188 -29.2028 -1.90152 30.7947 -0.0 -0.0 0.0 0.0 0.0 
2336.29 707.762 -1238.24 -15.207 52.1858 6.78901 2.93515 0.652259 4.2925 2.94531 0.378056 4.32522 2.97094 -0.315674 4.33021 2.94497 0.371507 4.32579 -15.6287 12.5224 -0.259339 -16.2139 24.1337 4.2176 -0.0 0.0 -0.0 -5.74958 7.94054 -9.3752 5.44219 -16.8961 57.3772 4.69353 -66.7047 3.09019 4.31881 0.13202 -0.535721 1.95667 -20.9241 4.0409 -0.0 0.0 -0.0 10.0864 11.8357 -19.99 -41.1111 38.6439 -66.5672 0.510736 14.1983 -0.0636083 35.4285 0.133079 4.45252 1.18508 -23.1267 -16.2742 0.0 0.0 0.0 -33.8466 69.0185 34.9884 2.07749 -0.0911083 -0.305749 5.60912 -28.9854 -1.0141 21.1793 -0.0 -0.0 -0.0 0.0 -0.0 60.8151 39.755 -24.7151 -44.3891 0.769342 -6.60149 -23.8991 -29.0255 -3.83497 31.8848 -0.0 -0.0 0.0 0.0 0.0 
2337.68 707.278 -1240.87 -16.6773 52.6712 8.69088 2.95429 0.627041 4.24991 2.96427 0.355591 4.28112 2.98791 -0.329603 4.28319 2.96249 0.350347 4.28155 -15.7451 12.4855 -0.715191 -16.3484 24.3303 3.80736 -0.0 0.0 -0.0 -5.53552 7.31205 -9.13556 7.04464 -16.0047 56.9183 4.97102 -67.8738 3.34618 2.18154 0.0717395 -0.269382 1.83826 -19.1534 4.07659 -0.0 0.0 -0.0 10.9441 12.6303 -21.8765 -42.2016 38.3581 -67.0093 0.504752 14.0385 -0.0621485 34.7007 0.102696 4.36459 1.56089 -22.2415 -18.3085 0.0 0.0 0.0 -36.8695 70.6364 38.9479 6.10563 -0.29913 -0.888462 1.58148 -29.5652 -0.292196 17.119 -0.0 -0.0 -0.0 0.0 -0.0 63.0054 39.562 -26.1349 -39.0624 0.408199 -5.86659 -26.0213 -28.3628 -4.15775 27.5708 -0.0 -0.0 0.0 0.0 0.0 
2327.61 708.363 -1242.84 -16.9702 52.4736 9.22997 2.90785 0.631773 4.26993 2.91792 0.359043 4.3014 2.94206 -0.332868 4.3035 2.91639 0.350321 4.30212 -14.963 12.7999 0.147479 -15.5138 24.3939 4.54551 -0.0 0.0 -0.0 -5.64575 8.77556 -8.97683 7.73988 -15.5387 56.9467 5.78511 -70.734 4.10798 -1.40573 -0.0516461 0.17208 1.63203 -16.0673 4.10116 -0.0 0.0 -0.0 10.985 11.3742 -21.9909 -42.9458 38.0643 -66.6773 0.493492 13.7374 -0.0594457 36.5184 0.180666 4.58348 1.4375 -25.8606 -18.587 0.0 0.0 0.0 -25.8076 66.0495 27.4736 2.54161 -0.112977 -0.373601 5.46497 -29.2005 -0.991394 18.0284 -0.0 -0.0 -0.0 0.0 -0.0 61.4875 38.849 -25.1283 -32.5316 0.0611983 -4.92565 -24.5202 -27.7506 -3.90342 25.3412 -0.0 -0.0 0.0 0.0 0.0 
2323.48 707.505 -1244.47 -17.7925 53.3112 10.5892 2.84585 0.598171 4.08327 2.85506 0.337355 4.11299 2.87685 -0.328854 4.11368 2.85339 0.324387 4.11403 -15.4913 12.5598 -1.0298 -16.0917 24.6452 3.48394 -0.0 0.0 -0.0 -5.67487 7.70313 -9.29678 8.17987 -15.1444 56.7322 6.28157 -72.1513 4.57866 -4.12807 -0.163614 0.501547 1.61618 -15.5822 4.21223 -0.0 0.0 -0.0 10.6203 10.3856 -21.193 -42.8229 38.7842 -66.872 0.491027 13.6714 -0.0588619 36.1345 0.163622 4.53746 1.48854 -24.8028 -18.5991 0.0 0.0 0.0 -25.3812 65.7875 26.9326 3.35862 -0.152808 -0.492612 7.63023 -29.4701 -1.37756 19.0409 -0.0 -0.0 -0.0 0.0 -0.0 60.2931 38.6948 -24.012 -25.7968 -0.181975 -3.92127 -21.0222 -26.9829 -3.32954 26.8454 -0.0 -0.0 0.0 0.0 0.0 
2311.76 708.274 -1247.9 -18.2958 53.9617 11.4561 2.79008 0.553909 3.93775 2.79865 0.302419 3.96496 2.81745 -0.343666 3.9616 2.79567 0.285802 3.96619 -14.4775 10.7599 -0.820896 -14.8516 21.0452 2.7933 -0.0 0.0 -0.0 -5.63516 7.85753 -9.18552 9.13943 -14.9312 57.499 6.40706 -72.4779 4.69822 -5.06944 -0.205964 0.614207 1.86385 -17.9955 4.77856 -0.0 0.0 -0.0 10.9397 7.777 -21.8976 -46.1248 38.4767 -64.3312 0.464973 12.9711 -0.0528586 35.0988 0.119175 4.41273 1.42671 -24.9703 -18.2738 0.0 0.0 0.0 -22.339 62.6657 23.1674 2.80385 -0.125576 -0.41186 9.26034 -29.6848 -1.66536 17.3997 -0.0 -0.0 -0.0 0.0 -0.0 57.1664 39.4766 -22.2075 -16.6576 -0.320459 -2.5272 -19.0896 -24.1272 -2.9759 24.0285 -0.0 -0.0 0.0 0.0 0.0 
2303.06 706.652 -1250.91 -19.1152 54.1253 12.6857 2.83101 0.542848 3.74565 2.83876 0.303576 3.77255 2.85675 -0.308713 3.77214 2.83701 0.290464 3.77358 -14.5713 11.3005 0.618582 -14.9571 21.2235 4.35238 -0.0 0.0 -0.0 -5.89748 8.94138 -9.39207 9.04486 -15.8021 57.417 7.93957 -75.6909 6.17257 -6.12584 -0.25569 0.739796 1.5572 -14.2698 4.4004 -0.0 0.0 -0.0 10.8322 9.99736 -21.665 -43.6991 38.4019 -67.319 0.430446 12.0371 -0.045383 36.448 0.17752 4.57505 0.985041 -29.2045 -16.8915 0.0 0.0 0.0 -22.9703 63.3322 23.4535 3.3195 -0.150862 -0.486927 8.278 -30.0574 -1.50242 18.3193 -0.0 -0.0 -0.0 0.0 -0.0 55.075 39.466 -21.2759 -6.93743 -0.222846 -1.04072 -19.4872 -22.7811 -3.01968 18.0899 -0.0 -0.0 0.0 0.0 0.0 
2280.58 701.009 -1256.77 -19.1019 54.0861 12.6548 2.85865 0.52353 3.64143 2.86598 0.290914 3.66732 2.88265 -0.302577 3.66638 2.864 0.279856 3.66818 -14.2497 11.5748 0.209851 -14.6483 21.9728 4.00103 -0.0 0.0 -0.0 -5.89374 10.5192 -8.97733 9.90283 -15.7981 58.0025 8.36726 -76.3898 6.58764 -7.97587 -0.348334 0.957483 1.57204 -13.6798 4.76187 -0.0 0.0 -0.0 10.5388 9.0303 -21.0217 -45.944 38.8862 -66.4717 0.432182 12.0843 -0.0457458 37.0177 0.203299 4.64317 1.14163 -29.1971 -17.7777 0.0 0.0 0.0 -21.1342 61.4148 20.8131 0.504005 -0.0210815 -0.0744696 10.4984 -28.9622 -1.86 16.2619 -0.0 -0.0 -0.0 0.0 -0.0 50.6663 40.1682 -19.0619 -0.039416 -0.00162107 -0.00583153 -16.9163 -22.9471 -2.61958 19.6769 -0.0 -0.0 0.0 0.0 0.0 
2261.16 702.999 -1262.23 -18.8706 54.2937 12.7049 2.84761 0.476424 3.57537 2.85468 0.248099 3.5984 2.86839 -0.334713 3.59139 2.85047 0.236302 3.59919 -13.0443 11.5871 -0.97921 -13.3944 22.6585 2.63189 -0.0 0.0 -0.0 -6.01513 12.8227 -8.57838 9.83079 -16.6506 58.7623 9.13321 -77.4855 7.3338 -10.7546 -0.5006 1.27862 1.46926 -11.5587 4.99983 -0.0 0.0 -0.0 10.1443 8.229 -20.1605 -47.2368 39.5669 -66.5691 0.448146 12.5168 -0.0491467 37.6223 0.231401 4.71519 0.86927 -28.947 -16.1633 0.0 0.0 0.0 -19.9188 59.04 18.3148 -2.03972 0.078594 0.303144 14.6965 -30.2134 -2.59508 17.2869 -0.0 -0.0 -0.0 0.0 -0.0 46.3044 41.0346 -17.029 4.92788 0.234067 0.71959 -16.7361 -22.8269 -2.58998 18.3827 -0.0 -0.0 0.0 0.0 0.0 
